<mxfile host="Electron" modified="2023-10-03T02:26:14.947Z" agent="Mozilla/5.0 (X11; Linux x86_64) AppleWebKit/537.36 (KHTML, like Gecko) draw.io/21.7.5 Chrome/114.0.5735.289 Electron/25.8.1 Safari/537.36" etag="bJJ6PmHVqRs10maAINpS" version="21.7.5" type="device" pages="5">
  <diagram name="Page-1" id="7e0a89b8-554c-2b80-1dc8-d5c74ca68de4">
    <mxGraphModel dx="884" dy="663" grid="1" gridSize="10" guides="1" tooltips="1" connect="1" arrows="1" fold="1" page="1" pageScale="1" pageWidth="1100" pageHeight="850" background="none" math="0" shadow="0">
      <root>
        <mxCell id="0" />
        <mxCell id="1" parent="0" />
        <mxCell id="1cb643a89b7d889d-12" style="edgeStyle=orthogonalEdgeStyle;rounded=0;html=1;exitPerimeter=0;entryX=0;entryY=0.5;entryPerimeter=0;labelBackgroundColor=none;startArrow=none;startFill=0;startSize=5;endArrow=none;endFill=0;endSize=5;jettySize=auto;orthogonalLoop=1;strokeWidth=1;fontFamily=Verdana;fontSize=12;" parent="1" source="VuVPS5KJBOoQBnHny8Ev-2" target="1cb643a89b7d889d-2" edge="1">
          <mxGeometry relative="1" as="geometry" />
        </mxCell>
        <mxCell id="1cb643a89b7d889d-1" value="40&amp;nbsp;&lt;b&gt;Ω&lt;/b&gt;" style="verticalLabelPosition=bottom;shadow=0;dashed=0;align=center;html=1;verticalAlign=top;strokeWidth=1;shape=mxgraph.electrical.resistors.resistor_2;rounded=1;comic=0;labelBackgroundColor=none;fontFamily=Verdana;fontSize=12" parent="1" vertex="1">
          <mxGeometry x="322" y="120" width="100" height="20" as="geometry" />
        </mxCell>
        <mxCell id="1cb643a89b7d889d-15" style="edgeStyle=orthogonalEdgeStyle;rounded=0;html=1;exitX=1;exitY=0.5;exitPerimeter=0;labelBackgroundColor=none;startArrow=none;startFill=0;startSize=5;endArrow=none;endFill=0;endSize=5;jettySize=auto;orthogonalLoop=1;strokeWidth=1;fontFamily=Verdana;fontSize=12;" parent="1" source="1cb643a89b7d889d-2" target="VuVPS5KJBOoQBnHny8Ev-1" edge="1">
          <mxGeometry relative="1" as="geometry">
            <mxPoint x="612" y="170" as="targetPoint" />
            <Array as="points">
              <mxPoint x="582" y="130" />
              <mxPoint x="582" y="170" />
            </Array>
          </mxGeometry>
        </mxCell>
        <mxCell id="1cb643a89b7d889d-2" value="20&amp;nbsp;&lt;b&gt;Ω&lt;/b&gt;" style="verticalLabelPosition=bottom;shadow=0;dashed=0;align=center;html=1;verticalAlign=top;strokeWidth=1;shape=mxgraph.electrical.resistors.resistor_2;rounded=1;comic=0;labelBackgroundColor=none;fontFamily=Verdana;fontSize=12" parent="1" vertex="1">
          <mxGeometry x="462" y="120" width="100" height="20" as="geometry" />
        </mxCell>
        <mxCell id="1cb643a89b7d889d-13" style="edgeStyle=orthogonalEdgeStyle;rounded=0;html=1;exitX=1;exitY=0.5;exitPerimeter=0;labelBackgroundColor=none;startArrow=none;startFill=0;startSize=5;endArrow=none;endFill=0;endSize=5;jettySize=auto;orthogonalLoop=1;strokeWidth=1;fontFamily=Verdana;fontSize=12" parent="1" source="1cb643a89b7d889d-3" target="VuVPS5KJBOoQBnHny8Ev-8" edge="1">
          <mxGeometry relative="1" as="geometry" />
        </mxCell>
        <mxCell id="1cb643a89b7d889d-3" value="70&amp;nbsp;&lt;b&gt;Ω&lt;/b&gt;" style="verticalLabelPosition=bottom;shadow=0;dashed=0;align=center;html=1;verticalAlign=top;strokeWidth=1;shape=mxgraph.electrical.resistors.resistor_2;rounded=1;comic=0;labelBackgroundColor=none;fontFamily=Verdana;fontSize=12" parent="1" vertex="1">
          <mxGeometry x="322" y="210" width="100" height="20" as="geometry" />
        </mxCell>
        <mxCell id="1cb643a89b7d889d-14" style="edgeStyle=orthogonalEdgeStyle;rounded=0;html=1;exitX=1;exitY=0.5;exitPerimeter=0;labelBackgroundColor=none;startArrow=none;startFill=0;startSize=5;endArrow=none;endFill=0;endSize=5;jettySize=auto;orthogonalLoop=1;strokeWidth=1;fontFamily=Verdana;fontSize=12;" parent="1" source="1cb643a89b7d889d-4" target="VuVPS5KJBOoQBnHny8Ev-1" edge="1">
          <mxGeometry relative="1" as="geometry">
            <mxPoint x="670" y="180" as="targetPoint" />
            <Array as="points">
              <mxPoint x="582" y="220" />
              <mxPoint x="582" y="170" />
            </Array>
          </mxGeometry>
        </mxCell>
        <mxCell id="1cb643a89b7d889d-4" value="20&amp;nbsp;&lt;b&gt;Ω&lt;/b&gt;" style="verticalLabelPosition=bottom;shadow=0;dashed=0;align=center;html=1;verticalAlign=top;strokeWidth=1;shape=mxgraph.electrical.resistors.resistor_2;rounded=1;comic=0;labelBackgroundColor=none;fontFamily=Verdana;fontSize=12" parent="1" vertex="1">
          <mxGeometry x="462" y="210" width="100" height="20" as="geometry" />
        </mxCell>
        <mxCell id="1cb643a89b7d889d-10" style="edgeStyle=orthogonalEdgeStyle;rounded=0;html=1;entryX=0;entryY=0.5;entryPerimeter=0;labelBackgroundColor=none;startArrow=none;startFill=0;startSize=5;endArrow=none;endFill=0;endSize=5;jettySize=auto;orthogonalLoop=1;strokeWidth=1;fontFamily=Verdana;fontSize=12" parent="1" source="VuVPS5KJBOoQBnHny8Ev-4" target="1cb643a89b7d889d-1" edge="1">
          <mxGeometry relative="1" as="geometry">
            <Array as="points">
              <mxPoint x="290" y="170" />
              <mxPoint x="290" y="130" />
            </Array>
          </mxGeometry>
        </mxCell>
        <mxCell id="1cb643a89b7d889d-11" style="edgeStyle=orthogonalEdgeStyle;rounded=0;html=1;entryX=0;entryY=0.5;entryPerimeter=0;labelBackgroundColor=none;startArrow=none;startFill=0;startSize=5;endArrow=none;endFill=0;endSize=5;jettySize=auto;orthogonalLoop=1;strokeWidth=1;fontFamily=Verdana;fontSize=12;" parent="1" source="VuVPS5KJBOoQBnHny8Ev-4" target="1cb643a89b7d889d-3" edge="1">
          <mxGeometry relative="1" as="geometry">
            <Array as="points">
              <mxPoint x="290" y="170" />
              <mxPoint x="290" y="220" />
            </Array>
          </mxGeometry>
        </mxCell>
        <mxCell id="1cb643a89b7d889d-5" value="50&amp;nbsp;&lt;b&gt;Ω&lt;/b&gt;" style="verticalLabelPosition=bottom;shadow=0;dashed=0;align=center;html=1;verticalAlign=top;strokeWidth=1;shape=mxgraph.electrical.resistors.resistor_2;rounded=1;comic=0;labelBackgroundColor=none;fontFamily=Verdana;fontSize=12;" parent="1" vertex="1">
          <mxGeometry x="162" y="160" width="100" height="20" as="geometry" />
        </mxCell>
        <mxCell id="1cb643a89b7d889d-9" style="edgeStyle=orthogonalEdgeStyle;rounded=0;html=1;exitX=0;exitY=0.5;exitPerimeter=0;labelBackgroundColor=none;startArrow=none;startFill=0;startSize=5;endArrow=none;endFill=0;endSize=5;jettySize=auto;orthogonalLoop=1;strokeWidth=1;fontFamily=Verdana;fontSize=12" parent="1" source="1cb643a89b7d889d-6" target="VuVPS5KJBOoQBnHny8Ev-5" edge="1">
          <mxGeometry relative="1" as="geometry">
            <Array as="points">
              <mxPoint x="122" y="300" />
            </Array>
          </mxGeometry>
        </mxCell>
        <mxCell id="1cb643a89b7d889d-6" value="20&amp;nbsp;&lt;b&gt;Ω&lt;/b&gt;" style="verticalLabelPosition=bottom;shadow=0;dashed=0;align=center;html=1;verticalAlign=top;strokeWidth=1;shape=mxgraph.electrical.resistors.resistor_2;rounded=1;comic=0;labelBackgroundColor=none;fontFamily=Verdana;fontSize=12" parent="1" vertex="1">
          <mxGeometry x="162" y="290" width="100" height="20" as="geometry" />
        </mxCell>
        <mxCell id="1cb643a89b7d889d-8" style="edgeStyle=orthogonalEdgeStyle;rounded=0;html=1;exitX=1;exitY=0.5;exitPerimeter=0;entryX=1;entryY=0.5;entryPerimeter=0;labelBackgroundColor=none;startArrow=none;startFill=0;startSize=5;endArrow=none;endFill=0;endSize=5;jettySize=auto;orthogonalLoop=1;strokeWidth=1;fontFamily=Verdana;fontSize=12" parent="1" source="1cb643a89b7d889d-7" target="1cb643a89b7d889d-6" edge="1">
          <mxGeometry relative="1" as="geometry" />
        </mxCell>
        <mxCell id="1cb643a89b7d889d-16" style="edgeStyle=orthogonalEdgeStyle;rounded=0;html=1;exitX=0;exitY=0.5;exitPerimeter=0;labelBackgroundColor=none;startArrow=none;startFill=0;startSize=5;endArrow=none;endFill=0;endSize=5;jettySize=auto;orthogonalLoop=1;strokeWidth=1;fontFamily=Verdana;fontSize=12" parent="1" source="1cb643a89b7d889d-7" target="VuVPS5KJBOoQBnHny8Ev-1" edge="1">
          <mxGeometry relative="1" as="geometry">
            <mxPoint x="612" y="170" as="targetPoint" />
            <Array as="points">
              <mxPoint x="632" y="300" />
              <mxPoint x="632" y="170" />
            </Array>
          </mxGeometry>
        </mxCell>
        <mxCell id="1cb643a89b7d889d-7" value="220 V" style="verticalLabelPosition=bottom;shadow=0;dashed=0;align=center;fillColor=default;html=1;verticalAlign=top;strokeWidth=1;shape=mxgraph.electrical.miscellaneous.monocell_battery;rounded=1;comic=0;labelBackgroundColor=none;fontFamily=Verdana;fontSize=12;flipH=1;" parent="1" vertex="1">
          <mxGeometry x="442" y="270" width="100" height="60" as="geometry" />
        </mxCell>
        <mxCell id="VuVPS5KJBOoQBnHny8Ev-1" value="B" style="shape=waypoint;sketch=0;fillStyle=solid;size=6;pointerEvents=1;points=[];fillColor=none;resizable=0;rotatable=0;perimeter=centerPerimeter;snapToPoint=1;verticalAlign=top;spacingBottom=0;spacingTop=-5;fontFamily=Verdana;fontSize=12;" parent="1" vertex="1">
          <mxGeometry x="592" y="150" width="40" height="40" as="geometry" />
        </mxCell>
        <mxCell id="VuVPS5KJBOoQBnHny8Ev-2" value="C" style="shape=waypoint;sketch=0;fillStyle=solid;size=6;pointerEvents=1;points=[];fillColor=none;resizable=0;rotatable=0;perimeter=centerPerimeter;snapToPoint=1;verticalAlign=top;spacingBottom=0;spacingTop=-5;fontFamily=Verdana;fontSize=12;" parent="1" vertex="1">
          <mxGeometry x="423" y="110" width="40" height="40" as="geometry" />
        </mxCell>
        <mxCell id="VuVPS5KJBOoQBnHny8Ev-3" value="" style="edgeStyle=orthogonalEdgeStyle;rounded=0;html=1;exitX=1;exitY=0.5;exitPerimeter=0;entryPerimeter=0;labelBackgroundColor=none;startArrow=none;startFill=0;startSize=5;endArrow=none;endFill=0;endSize=5;jettySize=auto;orthogonalLoop=1;strokeWidth=1;fontFamily=Verdana;fontSize=12;" parent="1" source="1cb643a89b7d889d-1" target="VuVPS5KJBOoQBnHny8Ev-2" edge="1">
          <mxGeometry relative="1" as="geometry">
            <mxPoint x="422" y="130.00000000000006" as="sourcePoint" />
            <mxPoint x="462" y="130.00000000000006" as="targetPoint" />
          </mxGeometry>
        </mxCell>
        <mxCell id="VuVPS5KJBOoQBnHny8Ev-4" value="A" style="shape=waypoint;sketch=0;fillStyle=solid;size=6;pointerEvents=1;points=[];fillColor=none;resizable=0;rotatable=0;perimeter=centerPerimeter;snapToPoint=1;verticalAlign=top;spacingBottom=0;spacingTop=-5;fontFamily=Verdana;fontSize=12;" parent="1" vertex="1">
          <mxGeometry x="242" y="150" width="40" height="40" as="geometry" />
        </mxCell>
        <mxCell id="VuVPS5KJBOoQBnHny8Ev-5" value="E" style="shape=waypoint;sketch=0;fillStyle=solid;size=6;pointerEvents=1;points=[];fillColor=none;resizable=0;rotatable=0;perimeter=centerPerimeter;snapToPoint=1;verticalAlign=middle;spacingBottom=0;spacingTop=0;fontFamily=Verdana;fontSize=12;labelPosition=center;verticalLabelPosition=middle;align=left;spacingRight=0;spacingLeft=6;" parent="1" vertex="1">
          <mxGeometry x="102" y="214" width="40" height="40" as="geometry" />
        </mxCell>
        <mxCell id="VuVPS5KJBOoQBnHny8Ev-7" style="edgeStyle=orthogonalEdgeStyle;rounded=0;html=1;labelBackgroundColor=none;startArrow=none;startFill=0;startSize=5;endArrow=none;endFill=0;endSize=5;jettySize=auto;orthogonalLoop=1;strokeWidth=1;fontFamily=Verdana;fontSize=12;entryX=0;entryY=0.5;entryDx=0;entryDy=0;entryPerimeter=0;" parent="1" source="VuVPS5KJBOoQBnHny8Ev-5" target="1cb643a89b7d889d-5" edge="1">
          <mxGeometry relative="1" as="geometry">
            <Array as="points">
              <mxPoint x="122" y="170" />
            </Array>
            <mxPoint x="172" y="310" as="sourcePoint" />
            <mxPoint x="132" y="244" as="targetPoint" />
          </mxGeometry>
        </mxCell>
        <mxCell id="VuVPS5KJBOoQBnHny8Ev-8" value="D" style="shape=waypoint;sketch=0;fillStyle=solid;size=6;pointerEvents=1;points=[];fillColor=none;resizable=0;rotatable=0;perimeter=centerPerimeter;snapToPoint=1;verticalAlign=top;spacingBottom=0;spacingTop=-5;fontFamily=Verdana;fontSize=12;" parent="1" vertex="1">
          <mxGeometry x="422" y="200" width="40" height="40" as="geometry" />
        </mxCell>
        <mxCell id="VuVPS5KJBOoQBnHny8Ev-9" style="edgeStyle=orthogonalEdgeStyle;rounded=0;html=1;labelBackgroundColor=none;startArrow=none;startFill=0;startSize=5;endArrow=none;endFill=0;endSize=5;jettySize=auto;orthogonalLoop=1;strokeWidth=1;fontFamily=Verdana;fontSize=12;entryX=0;entryY=0.5;entryDx=0;entryDy=0;entryPerimeter=0;" parent="1" source="VuVPS5KJBOoQBnHny8Ev-8" target="1cb643a89b7d889d-4" edge="1">
          <mxGeometry relative="1" as="geometry">
            <mxPoint x="432" y="230" as="sourcePoint" />
            <mxPoint x="452" y="230" as="targetPoint" />
          </mxGeometry>
        </mxCell>
      </root>
    </mxGraphModel>
  </diagram>
  <diagram id="5XKpVIcMHOzvjQ9C_W5t" name="Page-2">
    <mxGraphModel dx="769" dy="577" grid="1" gridSize="10" guides="1" tooltips="1" connect="1" arrows="1" fold="1" page="1" pageScale="1" pageWidth="850" pageHeight="1100" math="0" shadow="0">
      <root>
        <mxCell id="0" />
        <mxCell id="1" parent="0" />
        <mxCell id="K9pZEhEZ2mnYj9-6ZTQT-1" value="" style="pointerEvents=1;verticalLabelPosition=bottom;shadow=0;dashed=0;align=center;html=1;verticalAlign=top;shape=mxgraph.electrical.resistors.resistor_2;" vertex="1" parent="1">
          <mxGeometry x="260" y="220" width="100" height="20" as="geometry" />
        </mxCell>
        <mxCell id="K9pZEhEZ2mnYj9-6ZTQT-2" value="" style="ellipse;whiteSpace=wrap;html=1;" vertex="1" parent="1">
          <mxGeometry x="200" y="220" width="20" height="20" as="geometry" />
        </mxCell>
        <mxCell id="K9pZEhEZ2mnYj9-6ZTQT-5" value="" style="endArrow=none;html=1;rounded=0;exitX=1;exitY=0.5;exitDx=0;exitDy=0;entryX=0;entryY=0.5;entryDx=0;entryDy=0;entryPerimeter=0;" edge="1" parent="1" source="K9pZEhEZ2mnYj9-6ZTQT-2" target="K9pZEhEZ2mnYj9-6ZTQT-1">
          <mxGeometry width="50" height="50" relative="1" as="geometry">
            <mxPoint x="230" y="240" as="sourcePoint" />
            <mxPoint x="280" y="190" as="targetPoint" />
          </mxGeometry>
        </mxCell>
        <mxCell id="K9pZEhEZ2mnYj9-6ZTQT-6" value="&lt;font style=&quot;font-size: 15px;&quot;&gt;&lt;b&gt;Vin&lt;/b&gt;&lt;/font&gt;" style="text;html=1;strokeColor=none;fillColor=none;align=center;verticalAlign=middle;whiteSpace=wrap;rounded=0;" vertex="1" parent="1">
          <mxGeometry x="180" y="190" width="60" height="30" as="geometry" />
        </mxCell>
        <mxCell id="K9pZEhEZ2mnYj9-6ZTQT-8" value="&lt;font style=&quot;font-size: 16px;&quot;&gt;3.8k&lt;/font&gt;" style="text;html=1;strokeColor=none;fillColor=none;align=center;verticalAlign=middle;whiteSpace=wrap;rounded=0;" vertex="1" parent="1">
          <mxGeometry x="280" y="250" width="60" height="30" as="geometry" />
        </mxCell>
        <mxCell id="K9pZEhEZ2mnYj9-6ZTQT-9" value="" style="pointerEvents=1;verticalLabelPosition=bottom;shadow=0;dashed=0;align=center;html=1;verticalAlign=top;shape=mxgraph.electrical.resistors.resistor_2;direction=south;" vertex="1" parent="1">
          <mxGeometry x="380" y="280" width="20" height="100" as="geometry" />
        </mxCell>
        <mxCell id="K9pZEhEZ2mnYj9-6ZTQT-10" value="" style="endArrow=none;html=1;rounded=0;exitX=1;exitY=0.5;exitDx=0;exitDy=0;exitPerimeter=0;" edge="1" parent="1" source="K9pZEhEZ2mnYj9-6ZTQT-1">
          <mxGeometry width="50" height="50" relative="1" as="geometry">
            <mxPoint x="480" y="230" as="sourcePoint" />
            <mxPoint x="420" y="230" as="targetPoint" />
          </mxGeometry>
        </mxCell>
        <mxCell id="K9pZEhEZ2mnYj9-6ZTQT-11" value="" style="endArrow=none;html=1;rounded=0;exitX=0;exitY=0.5;exitDx=0;exitDy=0;exitPerimeter=0;" edge="1" parent="1" source="K9pZEhEZ2mnYj9-6ZTQT-9">
          <mxGeometry width="50" height="50" relative="1" as="geometry">
            <mxPoint x="440" y="370" as="sourcePoint" />
            <mxPoint x="390" y="230" as="targetPoint" />
          </mxGeometry>
        </mxCell>
        <mxCell id="K9pZEhEZ2mnYj9-6ZTQT-14" value="" style="ellipse;whiteSpace=wrap;html=1;" vertex="1" parent="1">
          <mxGeometry x="420" y="220" width="20" height="20" as="geometry" />
        </mxCell>
        <mxCell id="K9pZEhEZ2mnYj9-6ZTQT-15" value="&lt;font style=&quot;font-size: 15px;&quot;&gt;&lt;b&gt;Vout&lt;/b&gt;&lt;/font&gt;" style="text;html=1;strokeColor=none;fillColor=none;align=center;verticalAlign=middle;whiteSpace=wrap;rounded=0;" vertex="1" parent="1">
          <mxGeometry x="400" y="190" width="60" height="30" as="geometry" />
        </mxCell>
        <mxCell id="rPNaEpJvaiMk79k7Kp_i-1" value="" style="pointerEvents=1;verticalLabelPosition=bottom;shadow=0;dashed=0;align=center;html=1;verticalAlign=top;shape=mxgraph.electrical.signal_sources.signal_ground;" vertex="1" parent="1">
          <mxGeometry x="367.5" y="380" width="45" height="30" as="geometry" />
        </mxCell>
        <mxCell id="rPNaEpJvaiMk79k7Kp_i-2" value="&lt;font style=&quot;font-size: 16px;&quot;&gt;1k&lt;/font&gt;" style="text;html=1;strokeColor=none;fillColor=none;align=center;verticalAlign=middle;whiteSpace=wrap;rounded=0;" vertex="1" parent="1">
          <mxGeometry x="412.5" y="315" width="60" height="30" as="geometry" />
        </mxCell>
      </root>
    </mxGraphModel>
  </diagram>
  <diagram id="7bVy7focentTlExJ5fZ5" name="Page-3">
    <mxGraphModel dx="737" dy="553" grid="1" gridSize="10" guides="1" tooltips="1" connect="1" arrows="1" fold="1" page="1" pageScale="1" pageWidth="850" pageHeight="1100" math="0" shadow="0">
      <root>
        <mxCell id="0" />
        <mxCell id="1" parent="0" />
        <mxCell id="WWsQzW2ROfjwSp9ugjgc-1" value="" style="verticalLabelPosition=bottom;shadow=0;dashed=0;align=center;html=1;verticalAlign=top;shape=mxgraph.electrical.abstract.amplifier;" vertex="1" parent="1">
          <mxGeometry x="320" y="150" width="90" height="100" as="geometry" />
        </mxCell>
        <mxCell id="dF8marsB8Snsetf783_e-1" value="" style="ellipse;whiteSpace=wrap;html=1;" vertex="1" parent="1">
          <mxGeometry x="260" y="170" width="20" height="20" as="geometry" />
        </mxCell>
        <mxCell id="dF8marsB8Snsetf783_e-2" value="" style="endArrow=none;html=1;rounded=0;exitX=1;exitY=0.5;exitDx=0;exitDy=0;entryX=0.059;entryY=0.297;entryDx=0;entryDy=0;entryPerimeter=0;" edge="1" parent="1" source="dF8marsB8Snsetf783_e-1" target="WWsQzW2ROfjwSp9ugjgc-1">
          <mxGeometry width="50" height="50" relative="1" as="geometry">
            <mxPoint x="290" y="190" as="sourcePoint" />
            <mxPoint x="320" y="180" as="targetPoint" />
          </mxGeometry>
        </mxCell>
        <mxCell id="dF8marsB8Snsetf783_e-3" value="&lt;font style=&quot;font-size: 15px;&quot;&gt;&lt;b&gt;Vi = 0V&lt;/b&gt;&lt;/font&gt;" style="text;html=1;strokeColor=none;fillColor=none;align=center;verticalAlign=middle;whiteSpace=wrap;rounded=0;" vertex="1" parent="1">
          <mxGeometry x="190" y="165" width="70" height="30" as="geometry" />
        </mxCell>
        <mxCell id="dF8marsB8Snsetf783_e-5" value="" style="ellipse;whiteSpace=wrap;html=1;" vertex="1" parent="1">
          <mxGeometry x="260" y="220" width="20" height="20" as="geometry" />
        </mxCell>
        <mxCell id="dF8marsB8Snsetf783_e-6" value="" style="endArrow=none;html=1;rounded=0;exitX=1;exitY=0.5;exitDx=0;exitDy=0;entryX=0.059;entryY=0.297;entryDx=0;entryDy=0;entryPerimeter=0;" edge="1" parent="1" source="dF8marsB8Snsetf783_e-5">
          <mxGeometry width="50" height="50" relative="1" as="geometry">
            <mxPoint x="290" y="240" as="sourcePoint" />
            <mxPoint x="325" y="230" as="targetPoint" />
          </mxGeometry>
        </mxCell>
        <mxCell id="dF8marsB8Snsetf783_e-7" value="&lt;font style=&quot;font-size: 15px;&quot;&gt;&lt;b&gt;Vin&lt;/b&gt;&lt;/font&gt;" style="text;html=1;strokeColor=none;fillColor=none;align=center;verticalAlign=middle;whiteSpace=wrap;rounded=0;" vertex="1" parent="1">
          <mxGeometry x="200" y="215" width="70" height="30" as="geometry" />
        </mxCell>
        <mxCell id="dF8marsB8Snsetf783_e-8" value="" style="ellipse;whiteSpace=wrap;html=1;" vertex="1" parent="1">
          <mxGeometry x="510" y="190" width="20" height="20" as="geometry" />
        </mxCell>
        <mxCell id="dF8marsB8Snsetf783_e-10" value="&lt;font style=&quot;font-size: 15px;&quot;&gt;&lt;b&gt;Vout&lt;/b&gt;&lt;/font&gt;" style="text;html=1;strokeColor=none;fillColor=none;align=center;verticalAlign=middle;whiteSpace=wrap;rounded=0;" vertex="1" parent="1">
          <mxGeometry x="485" y="165" width="70" height="30" as="geometry" />
        </mxCell>
        <mxCell id="2rLm-EMJtCFYuzpDHAsm-1" value="" style="pointerEvents=1;verticalLabelPosition=bottom;shadow=0;dashed=0;align=center;html=1;verticalAlign=top;shape=mxgraph.electrical.resistors.resistor_2;" vertex="1" parent="1">
          <mxGeometry x="410" y="190" width="100" height="20" as="geometry" />
        </mxCell>
        <mxCell id="TBN6ICt6E378TcdgA_ZL-1" value="&lt;font style=&quot;font-size: 16px;&quot;&gt;1k&lt;/font&gt;" style="text;html=1;strokeColor=none;fillColor=none;align=center;verticalAlign=middle;whiteSpace=wrap;rounded=0;" vertex="1" parent="1">
          <mxGeometry x="430" y="160" width="60" height="30" as="geometry" />
        </mxCell>
        <mxCell id="TBN6ICt6E378TcdgA_ZL-2" value="&lt;font style=&quot;font-size: 16px;&quot;&gt;-&lt;/font&gt;" style="text;html=1;strokeColor=none;fillColor=none;align=center;verticalAlign=middle;whiteSpace=wrap;rounded=0;" vertex="1" parent="1">
          <mxGeometry x="310" y="165" width="60" height="30" as="geometry" />
        </mxCell>
        <mxCell id="TBN6ICt6E378TcdgA_ZL-3" value="&lt;font style=&quot;font-size: 16px;&quot;&gt;+&lt;/font&gt;" style="text;html=1;strokeColor=none;fillColor=none;align=center;verticalAlign=middle;whiteSpace=wrap;rounded=0;" vertex="1" parent="1">
          <mxGeometry x="310" y="200" width="60" height="30" as="geometry" />
        </mxCell>
      </root>
    </mxGraphModel>
  </diagram>
  <diagram id="WiX5tRg8Zn4s7y9gvtyQ" name="Page-4">
    <mxGraphModel dx="570" dy="428" grid="1" gridSize="10" guides="1" tooltips="1" connect="1" arrows="1" fold="1" page="1" pageScale="1" pageWidth="850" pageHeight="1100" math="0" shadow="0">
      <root>
        <mxCell id="0" />
        <mxCell id="1" parent="0" />
        <mxCell id="B3TiiNBcAwqO6-4gOnl3-1" value="" style="verticalLabelPosition=bottom;shadow=0;dashed=0;align=center;html=1;verticalAlign=top;shape=mxgraph.electrical.abstract.amplifier;" vertex="1" parent="1">
          <mxGeometry x="320" y="150" width="90" height="100" as="geometry" />
        </mxCell>
        <mxCell id="B3TiiNBcAwqO6-4gOnl3-2" value="" style="ellipse;whiteSpace=wrap;html=1;" vertex="1" parent="1">
          <mxGeometry x="260" y="170" width="20" height="20" as="geometry" />
        </mxCell>
        <mxCell id="B3TiiNBcAwqO6-4gOnl3-3" value="" style="endArrow=none;html=1;rounded=0;exitX=1;exitY=0.5;exitDx=0;exitDy=0;entryX=0.059;entryY=0.297;entryDx=0;entryDy=0;entryPerimeter=0;" edge="1" parent="1" source="B3TiiNBcAwqO6-4gOnl3-2" target="B3TiiNBcAwqO6-4gOnl3-1">
          <mxGeometry width="50" height="50" relative="1" as="geometry">
            <mxPoint x="290" y="190" as="sourcePoint" />
            <mxPoint x="320" y="180" as="targetPoint" />
          </mxGeometry>
        </mxCell>
        <mxCell id="B3TiiNBcAwqO6-4gOnl3-4" value="&lt;font style=&quot;font-size: 15px;&quot;&gt;&lt;b&gt;Vin&lt;/b&gt;&lt;/font&gt;" style="text;html=1;strokeColor=none;fillColor=none;align=center;verticalAlign=middle;whiteSpace=wrap;rounded=0;" vertex="1" parent="1">
          <mxGeometry x="210" y="165" width="70" height="30" as="geometry" />
        </mxCell>
        <mxCell id="B3TiiNBcAwqO6-4gOnl3-6" value="" style="endArrow=none;html=1;rounded=0;exitX=1;exitY=0.5;exitDx=0;exitDy=0;entryX=0.059;entryY=0.297;entryDx=0;entryDy=0;entryPerimeter=0;" edge="1" parent="1">
          <mxGeometry width="50" height="50" relative="1" as="geometry">
            <mxPoint x="280" y="230" as="sourcePoint" />
            <mxPoint x="325" y="230" as="targetPoint" />
          </mxGeometry>
        </mxCell>
        <mxCell id="B3TiiNBcAwqO6-4gOnl3-8" value="" style="ellipse;whiteSpace=wrap;html=1;" vertex="1" parent="1">
          <mxGeometry x="501" y="259" width="20" height="20" as="geometry" />
        </mxCell>
        <mxCell id="B3TiiNBcAwqO6-4gOnl3-9" value="&lt;font style=&quot;font-size: 15px;&quot;&gt;&lt;b&gt;Vout&lt;/b&gt;&lt;/font&gt;" style="text;html=1;strokeColor=none;fillColor=none;align=center;verticalAlign=middle;whiteSpace=wrap;rounded=0;" vertex="1" parent="1">
          <mxGeometry x="477" y="230" width="70" height="30" as="geometry" />
        </mxCell>
        <mxCell id="B3TiiNBcAwqO6-4gOnl3-10" value="" style="pointerEvents=1;verticalLabelPosition=bottom;shadow=0;dashed=0;align=center;html=1;verticalAlign=top;shape=mxgraph.electrical.resistors.resistor_2;direction=south;" vertex="1" parent="1">
          <mxGeometry x="430" y="265" width="20" height="100" as="geometry" />
        </mxCell>
        <mxCell id="B3TiiNBcAwqO6-4gOnl3-11" value="&lt;font style=&quot;font-size: 16px;&quot;&gt;1k&lt;/font&gt;" style="text;html=1;strokeColor=none;fillColor=none;align=center;verticalAlign=middle;whiteSpace=wrap;rounded=0;direction=south;" vertex="1" parent="1">
          <mxGeometry x="395" y="275" width="30" height="60" as="geometry" />
        </mxCell>
        <mxCell id="B3TiiNBcAwqO6-4gOnl3-12" value="&lt;font style=&quot;font-size: 16px;&quot;&gt;-&lt;/font&gt;" style="text;html=1;strokeColor=none;fillColor=none;align=center;verticalAlign=middle;whiteSpace=wrap;rounded=0;" vertex="1" parent="1">
          <mxGeometry x="310" y="200" width="60" height="30" as="geometry" />
        </mxCell>
        <mxCell id="B3TiiNBcAwqO6-4gOnl3-13" value="&lt;font style=&quot;font-size: 16px;&quot;&gt;+&lt;/font&gt;" style="text;html=1;strokeColor=none;fillColor=none;align=center;verticalAlign=middle;whiteSpace=wrap;rounded=0;" vertex="1" parent="1">
          <mxGeometry x="310" y="165" width="60" height="30" as="geometry" />
        </mxCell>
        <mxCell id="7AnKQsVPCqi-Z6xeU_Ro-1" value="" style="pointerEvents=1;verticalLabelPosition=bottom;shadow=0;dashed=0;align=center;html=1;verticalAlign=top;shape=mxgraph.electrical.signal_sources.signal_ground;" vertex="1" parent="1">
          <mxGeometry x="417.5" y="365" width="45" height="30" as="geometry" />
        </mxCell>
        <mxCell id="7AnKQsVPCqi-Z6xeU_Ro-2" value="" style="endArrow=none;html=1;rounded=0;exitX=1;exitY=0.5;exitDx=0;exitDy=0;exitPerimeter=0;entryX=0;entryY=0.5;entryDx=0;entryDy=0;entryPerimeter=0;" edge="1" parent="1" source="B3TiiNBcAwqO6-4gOnl3-1" target="7AnKQsVPCqi-Z6xeU_Ro-7">
          <mxGeometry width="50" height="50" relative="1" as="geometry">
            <mxPoint x="330" y="400" as="sourcePoint" />
            <mxPoint x="540" y="200" as="targetPoint" />
          </mxGeometry>
        </mxCell>
        <mxCell id="7AnKQsVPCqi-Z6xeU_Ro-7" value="" style="pointerEvents=1;fillColor=strokeColor;verticalLabelPosition=bottom;shadow=0;dashed=0;align=center;html=1;verticalAlign=top;shape=mxgraph.electrical.diodes.diode;direction=south;" vertex="1" parent="1">
          <mxGeometry x="425" y="200" width="30" height="65" as="geometry" />
        </mxCell>
        <mxCell id="7AnKQsVPCqi-Z6xeU_Ro-8" value="" style="endArrow=none;html=1;rounded=0;exitX=1;exitY=0.5;exitDx=0;exitDy=0;exitPerimeter=0;" edge="1" parent="1">
          <mxGeometry width="50" height="50" relative="1" as="geometry">
            <mxPoint x="440" y="269" as="sourcePoint" />
            <mxPoint x="500" y="269" as="targetPoint" />
          </mxGeometry>
        </mxCell>
        <mxCell id="7AnKQsVPCqi-Z6xeU_Ro-10" value="" style="endArrow=none;html=1;rounded=0;entryX=1;entryY=0.5;entryDx=0;entryDy=0;entryPerimeter=0;" edge="1" parent="1">
          <mxGeometry width="50" height="50" relative="1" as="geometry">
            <mxPoint x="280" y="269" as="sourcePoint" />
            <mxPoint x="440" y="269" as="targetPoint" />
          </mxGeometry>
        </mxCell>
        <mxCell id="7AnKQsVPCqi-Z6xeU_Ro-11" value="" style="endArrow=none;html=1;rounded=0;endSize=4;" edge="1" parent="1">
          <mxGeometry width="50" height="50" relative="1" as="geometry">
            <mxPoint x="280" y="270" as="sourcePoint" />
            <mxPoint x="280" y="230" as="targetPoint" />
          </mxGeometry>
        </mxCell>
      </root>
    </mxGraphModel>
  </diagram>
  <diagram id="4wrKVJEyAS63Cmaft5sb" name="Page-5">
    <mxGraphModel dx="570" dy="428" grid="1" gridSize="10" guides="1" tooltips="1" connect="1" arrows="1" fold="1" page="1" pageScale="1" pageWidth="850" pageHeight="1100" math="0" shadow="0">
      <root>
        <mxCell id="0" />
        <mxCell id="1" parent="0" />
        <mxCell id="09BO7b9PHI1-uMq3PG6E-1" value="" style="verticalLabelPosition=bottom;shadow=0;dashed=0;align=center;html=1;verticalAlign=top;shape=mxgraph.electrical.abstract.amplifier;" vertex="1" parent="1">
          <mxGeometry x="320" y="150" width="90" height="100" as="geometry" />
        </mxCell>
        <mxCell id="09BO7b9PHI1-uMq3PG6E-3" value="" style="endArrow=none;html=1;rounded=0;exitX=1;exitY=0.5;exitDx=0;exitDy=0;entryX=0.059;entryY=0.297;entryDx=0;entryDy=0;entryPerimeter=0;" edge="1" parent="1" target="09BO7b9PHI1-uMq3PG6E-1">
          <mxGeometry width="50" height="50" relative="1" as="geometry">
            <mxPoint x="280" y="180" as="sourcePoint" />
            <mxPoint x="320" y="180" as="targetPoint" />
          </mxGeometry>
        </mxCell>
        <mxCell id="09BO7b9PHI1-uMq3PG6E-4" value="" style="endArrow=none;html=1;rounded=0;exitX=1;exitY=0.5;exitDx=0;exitDy=0;entryX=0.059;entryY=0.297;entryDx=0;entryDy=0;entryPerimeter=0;" edge="1" parent="1">
          <mxGeometry width="50" height="50" relative="1" as="geometry">
            <mxPoint x="280" y="230" as="sourcePoint" />
            <mxPoint x="325" y="230" as="targetPoint" />
          </mxGeometry>
        </mxCell>
        <mxCell id="09BO7b9PHI1-uMq3PG6E-5" value="" style="ellipse;whiteSpace=wrap;html=1;" vertex="1" parent="1">
          <mxGeometry x="501" y="259" width="20" height="20" as="geometry" />
        </mxCell>
        <mxCell id="09BO7b9PHI1-uMq3PG6E-7" value="&lt;font style=&quot;font-size: 16px;&quot;&gt;5k&lt;/font&gt;" style="text;html=1;strokeColor=none;fillColor=none;align=center;verticalAlign=middle;whiteSpace=wrap;rounded=0;direction=south;" vertex="1" parent="1">
          <mxGeometry x="315" y="259" width="30" height="60" as="geometry" />
        </mxCell>
        <mxCell id="09BO7b9PHI1-uMq3PG6E-8" value="&lt;font style=&quot;font-size: 16px;&quot;&gt;-&lt;/font&gt;" style="text;html=1;strokeColor=none;fillColor=none;align=center;verticalAlign=middle;whiteSpace=wrap;rounded=0;" vertex="1" parent="1">
          <mxGeometry x="310" y="200" width="60" height="30" as="geometry" />
        </mxCell>
        <mxCell id="09BO7b9PHI1-uMq3PG6E-9" value="&lt;font style=&quot;font-size: 16px;&quot;&gt;+&lt;/font&gt;" style="text;html=1;strokeColor=none;fillColor=none;align=center;verticalAlign=middle;whiteSpace=wrap;rounded=0;" vertex="1" parent="1">
          <mxGeometry x="310" y="165" width="60" height="30" as="geometry" />
        </mxCell>
        <mxCell id="09BO7b9PHI1-uMq3PG6E-11" value="" style="endArrow=none;html=1;rounded=0;exitX=1;exitY=0.5;exitDx=0;exitDy=0;exitPerimeter=0;entryX=0;entryY=0.5;entryDx=0;entryDy=0;entryPerimeter=0;" edge="1" parent="1" source="09BO7b9PHI1-uMq3PG6E-1">
          <mxGeometry width="50" height="50" relative="1" as="geometry">
            <mxPoint x="330" y="400" as="sourcePoint" />
            <mxPoint x="440" y="200" as="targetPoint" />
          </mxGeometry>
        </mxCell>
        <mxCell id="09BO7b9PHI1-uMq3PG6E-13" value="" style="endArrow=none;html=1;rounded=0;exitX=1;exitY=0.5;exitDx=0;exitDy=0;exitPerimeter=0;" edge="1" parent="1">
          <mxGeometry width="50" height="50" relative="1" as="geometry">
            <mxPoint x="440" y="269" as="sourcePoint" />
            <mxPoint x="500" y="269" as="targetPoint" />
          </mxGeometry>
        </mxCell>
        <mxCell id="09BO7b9PHI1-uMq3PG6E-15" value="" style="endArrow=none;html=1;rounded=0;endSize=4;" edge="1" parent="1">
          <mxGeometry width="50" height="50" relative="1" as="geometry">
            <mxPoint x="280" y="270" as="sourcePoint" />
            <mxPoint x="280" y="230" as="targetPoint" />
          </mxGeometry>
        </mxCell>
        <mxCell id="09BO7b9PHI1-uMq3PG6E-16" value="" style="pointerEvents=1;verticalLabelPosition=bottom;shadow=0;dashed=0;align=center;html=1;verticalAlign=top;shape=mxgraph.electrical.signal_sources.signal_ground;" vertex="1" parent="1">
          <mxGeometry x="258" y="180" width="45" height="30" as="geometry" />
        </mxCell>
        <mxCell id="09BO7b9PHI1-uMq3PG6E-18" value="" style="ellipse;whiteSpace=wrap;html=1;" vertex="1" parent="1">
          <mxGeometry x="160" y="260" width="20" height="20" as="geometry" />
        </mxCell>
        <mxCell id="09BO7b9PHI1-uMq3PG6E-20" value="" style="pointerEvents=1;verticalLabelPosition=bottom;shadow=0;dashed=0;align=center;html=1;verticalAlign=top;shape=mxgraph.electrical.resistors.resistor_2;direction=west;" vertex="1" parent="1">
          <mxGeometry x="280" y="260" width="100" height="20" as="geometry" />
        </mxCell>
        <mxCell id="09BO7b9PHI1-uMq3PG6E-21" value="" style="endArrow=none;html=1;rounded=0;exitX=1;exitY=0.5;exitDx=0;exitDy=0;exitPerimeter=0;" edge="1" parent="1">
          <mxGeometry width="50" height="50" relative="1" as="geometry">
            <mxPoint x="380" y="269.85" as="sourcePoint" />
            <mxPoint x="440" y="269.85" as="targetPoint" />
          </mxGeometry>
        </mxCell>
        <mxCell id="09BO7b9PHI1-uMq3PG6E-23" value="" style="endArrow=none;html=1;rounded=0;endSize=4;" edge="1" parent="1">
          <mxGeometry width="50" height="50" relative="1" as="geometry">
            <mxPoint x="440" y="270" as="sourcePoint" />
            <mxPoint x="439.62" y="200" as="targetPoint" />
          </mxGeometry>
        </mxCell>
        <mxCell id="09BO7b9PHI1-uMq3PG6E-25" value="&lt;font style=&quot;font-size: 16px;&quot;&gt;Vo&lt;/font&gt;" style="text;html=1;strokeColor=none;fillColor=none;align=center;verticalAlign=middle;whiteSpace=wrap;rounded=0;direction=south;" vertex="1" parent="1">
          <mxGeometry x="496" y="219" width="30" height="60" as="geometry" />
        </mxCell>
        <mxCell id="09BO7b9PHI1-uMq3PG6E-26" value="" style="pointerEvents=1;verticalLabelPosition=bottom;shadow=0;dashed=0;align=center;html=1;verticalAlign=top;shape=mxgraph.electrical.resistors.resistor_2;direction=west;" vertex="1" parent="1">
          <mxGeometry x="180" y="259" width="100" height="20" as="geometry" />
        </mxCell>
        <mxCell id="09BO7b9PHI1-uMq3PG6E-27" value="&lt;font style=&quot;font-size: 16px;&quot;&gt;Vi&lt;/font&gt;" style="text;html=1;strokeColor=none;fillColor=none;align=center;verticalAlign=middle;whiteSpace=wrap;rounded=0;direction=south;" vertex="1" parent="1">
          <mxGeometry x="155" y="219" width="30" height="60" as="geometry" />
        </mxCell>
        <mxCell id="09BO7b9PHI1-uMq3PG6E-29" value="&lt;font style=&quot;font-size: 16px;&quot;&gt;24k&lt;/font&gt;" style="text;html=1;strokeColor=none;fillColor=none;align=center;verticalAlign=middle;whiteSpace=wrap;rounded=0;direction=south;" vertex="1" parent="1">
          <mxGeometry x="215" y="259" width="30" height="60" as="geometry" />
        </mxCell>
      </root>
    </mxGraphModel>
  </diagram>
</mxfile>
